<svg version="1.1" xmlns="http://www.w3.org/2000/svg" width="1080" height="1080">

<path d="M0 0 C0.98673706 -0.01004562 1.97347412 -0.02009125 2.9901123 -0.03044128 C4.06138367 -0.03627228 5.13265503 -0.04210327 6.23638916 -0.04811096 C7.37358398 -0.05789474 8.51077881 -0.06767853 9.68243408 -0.07775879 C13.4429203 -0.10765469 17.20337116 -0.12908056 20.96392822 -0.14796448 C22.89296368 -0.15782222 22.89296368 -0.15782222 24.86096954 -0.1678791 C30.26722659 -0.1937494 35.67347064 -0.21723674 41.07976913 -0.23237514 C48.80546157 -0.25426894 56.53045813 -0.29623704 64.25587249 -0.36581272 C70.35822566 -0.41889029 76.46030503 -0.43887198 82.56287384 -0.44757271 C85.15120091 -0.45612632 87.73951561 -0.47494179 90.32769012 -0.50431633 C93.95405578 -0.54326281 97.57861369 -0.54426028 101.20513916 -0.53639221 C102.79990082 -0.56639313 102.79990082 -0.56639313 104.42687988 -0.59700012 C111.57019768 -0.52762128 116.85730314 0.96950523 121.97955322 6.16062927 C126.80833914 12.48181573 126.54670315 18.32668425 126.49421692 26.08355713 C126.50116245 27.3892192 126.50810798 28.69488127 126.51526397 30.04010886 C126.53386828 33.65362205 126.52759416 37.26672479 126.51711094 40.88025486 C126.51011243 44.78155454 126.52612194 48.68277046 126.53910828 52.58404541 C126.56074393 60.22329337 126.5606223 67.86239233 126.55248273 75.50166086 C126.54618041 81.71233085 126.5473219 87.92295741 126.55375481 94.13362694 C126.55465646 95.01790688 126.55555812 95.90218681 126.55648709 96.81326311 C126.55833832 98.60975508 126.56020088 100.40624703 126.56207465 102.20273896 C126.57865215 119.04791718 126.56993494 135.89301164 126.55308907 152.73818483 C126.53839795 168.14079014 126.5530123 183.54320027 126.58185924 198.94578043 C126.61127184 214.76850526 126.62221971 230.59114006 126.61267704 246.41389102 C126.61165451 248.20465543 126.6106599 249.99541986 126.60969353 251.78618431 C126.60921714 252.66722756 126.60874075 253.54827081 126.60824992 254.45601234 C126.60608794 260.65557309 126.61587859 266.85504842 126.63046455 273.05459023 C126.64800508 280.61532662 126.64784621 288.17581437 126.6251129 295.73654107 C126.61398519 299.59206316 126.61077419 303.44714749 126.6294136 307.30265045 C126.64938531 311.4877092 126.63040077 315.67170554 126.60774231 319.85675049 C126.61957804 321.06795069 126.63141377 322.27915089 126.64360815 323.52705413 C126.5601657 331.11947618 125.24804855 336.79748252 120.97955322 343.16062927 C118.62799072 345.41453552 118.62799072 345.41453552 116.35455322 346.72312927 C115.5991626 347.17816833 114.84377197 347.6332074 114.06549072 348.10203552 C110.91760673 349.69955718 108.38218032 350.28667773 104.90074158 350.30107117 C104.07228729 350.30678131 103.24383301 350.31249146 102.39027405 350.31837463 C101.48476303 350.31949249 100.57925201 350.32061035 99.64630127 350.32176208 C98.68989746 350.32672699 97.73349365 350.33169189 96.74810791 350.33680725 C93.57915532 350.35143097 90.41025279 350.35823132 87.24127197 350.36375427 C85.04032896 350.36950565 82.83938597 350.37526339 80.63844299 350.38102722 C76.02078009 350.39153787 71.40313461 350.39738009 66.78546143 350.40086365 C60.8705056 350.40634779 54.95578003 350.43037401 49.04089642 350.4588356 C44.49326405 350.47746584 39.9456871 350.4826678 35.39801979 350.48419952 C33.2175451 350.48722581 31.03707139 350.49525351 28.85663414 350.5083847 C25.80457454 350.52545259 22.75307683 350.52356295 19.70098877 350.51707458 C18.80155045 350.52628937 17.90211212 350.53550415 16.97541809 350.54499817 C11.09014723 350.50583527 6.80705102 349.61333736 2.20953369 345.62522888 C-3.38304994 339.04793206 -8.11227041 331.89408712 -12.89544678 324.72312927 C-13.82015986 323.34546122 -14.74546073 321.96818753 -15.67132568 320.59129333 C-17.08176152 318.49339968 -18.49169525 316.39518398 -19.89944458 314.29548645 C-22.88993568 309.83536617 -25.89850835 305.38820408 -28.92669678 300.95359802 C-29.30947784 300.3927803 -29.69225891 299.83196259 -30.0866394 299.25415039 C-31.86488646 296.64968848 -33.64479766 294.04637553 -35.4262085 291.44407654 C-50.07452906 269.9644433 -50.07452906 269.9644433 -49.02044678 261.16062927 C-46.76905876 256.5712614 -43.82928918 253.06079248 -39.02044678 251.16062927 C-34.41478522 250.56435338 -29.83507198 250.60347823 -25.19622803 250.62156677 C-23.84433914 250.6116518 -22.49246376 250.5997075 -21.14060974 250.58583069 C-17.59569513 250.55356847 -14.05108944 250.54308464 -10.50604248 250.53898621 C-4.82205776 250.53020576 0.86167481 250.49474668 6.54545021 250.44681168 C8.52797914 250.43423045 10.51058054 250.43556751 12.4931488 250.43708801 C13.69482193 250.43012909 14.89649506 250.42317017 16.13458252 250.41600037 C17.72293159 250.41411209 17.72293159 250.41411209 19.34336853 250.41218567 C22.21052733 250.3483681 22.21052733 250.3483681 24.97955322 248.16062927 C25.42754615 246.2283583 25.42754615 246.2283583 25.3470459 243.96856689 C25.35539963 242.64802811 25.35539963 242.64802811 25.36392212 241.30081177 C25.35470734 240.33134109 25.34549255 239.36187042 25.33599854 238.36302185 C25.33906509 236.8325824 25.33906509 236.8325824 25.3421936 235.27122498 C25.34522169 231.86569269 25.32661989 228.46063626 25.30767822 225.05516052 C25.30461556 222.66280232 25.3027433 220.27044232 25.30200195 217.87808228 C25.29738155 212.8279093 25.28292188 207.77789419 25.26080322 202.72776794 C25.23307543 196.37650775 25.22172794 190.02537351 25.21700287 183.67405891 C25.1934727 155.15665354 24.9197423 126.66341837 23.97955322 98.16062927 C23.55372452 98.61928879 23.12789581 99.0779483 22.68916321 99.55050659 C14.99654634 107.83327393 7.24553039 116.02306366 -0.83123779 123.93431091 C-3.80327016 126.86326434 -6.64515938 129.83794523 -9.36419678 133.00437927 C-14.25956372 138.67557446 -19.65715969 143.84257579 -24.99310303 149.09422302 C-28.61343665 152.67968987 -32.17151731 156.26004819 -35.48919678 160.12937927 C-40.52653917 165.99750287 -46.13217181 171.31546289 -51.63763428 176.73875427 C-56.01330162 181.07452191 -60.21091084 185.461876 -64.21966553 190.13719177 C-68.56462226 195.01937743 -73.33715054 199.51182429 -77.99310303 204.09422302 C-81.60303353 207.66938694 -85.15203683 211.23798177 -88.45794678 215.09812927 C-93.70129367 221.20623256 -99.55387712 226.73601958 -105.28216553 232.38328552 C-109.79167587 236.85375249 -114.13873008 241.36389927 -118.26849365 246.1860199 C-122.38967437 250.83096271 -126.92279334 255.09817136 -131.34857178 259.44969177 C-134.83060408 262.89619313 -138.23891553 266.34466481 -141.42669678 270.06687927 C-146.68324594 276.18337081 -152.54316443 281.72545842 -158.28216553 287.38328552 C-162.14784441 291.21549532 -165.97838601 295.02474014 -169.52044678 299.16062927 C-174.73724964 305.25203191 -180.57532418 310.75716329 -186.28216553 316.38328552 C-190.8066164 320.86856366 -195.1840643 325.390503 -199.33099365 330.22654724 C-202.42750039 333.771421 -205.71698077 337.12219967 -209.02044678 340.47312927 C-209.6933374 341.1750238 -210.36622803 341.87691833 -211.05950928 342.6000824 C-211.72724365 343.27619568 -212.39497803 343.95230896 -213.08294678 344.64891052 C-213.96659912 345.55443665 -213.96659912 345.55443665 -214.86810303 346.47825623 C-221.14813211 351.38702215 -227.13219348 351.5994881 -234.81756592 351.56468201 C-235.88184311 351.57154526 -236.9461203 351.57840851 -238.04264832 351.58547974 C-241.5471037 351.60372405 -245.05111052 351.59991421 -248.55560303 351.59422302 C-250.99745326 351.5987852 -253.43930221 351.60409088 -255.88114929 351.61010742 C-260.99282049 351.61903333 -266.10433539 351.6166203 -271.21600342 351.60667419 C-277.76543408 351.595172 -284.31432659 351.61541847 -290.86368656 351.64459133 C-295.9037366 351.66293618 -300.94365718 351.66266447 -305.98373222 351.65695381 C-308.39865309 351.65680046 -310.81358266 351.66285619 -313.22847176 351.67524529 C-316.60356597 351.69012434 -319.97765926 351.6795006 -323.35272217 351.66233826 C-324.34873444 351.67200623 -325.3447467 351.68167419 -326.37094116 351.69163513 C-332.2458666 351.6290872 -335.51848848 351.021409 -340.02044678 347.16062927 C-343.28748742 343.45798321 -343.76100883 339.61762249 -343.51642275 334.81425977 C-342.96394126 331.85830662 -342.31187293 330.82425385 -340.28795624 328.6517601 C-339.64757384 327.96117807 -339.00719145 327.27059604 -338.34740353 326.55908728 C-333.31139351 321.36833393 -328.23118316 316.22689666 -323.11529541 311.11503601 C-321.79822424 309.7953779 -320.48136683 308.47550642 -319.16470385 307.15544105 C-315.55918119 303.54188467 -311.95055855 299.93143822 -308.34138703 296.32152677 C-304.44455375 292.42283674 -300.55056971 288.52130257 -296.65617371 284.62017822 C-288.1488351 276.09928465 -279.63774408 267.58214585 -271.1258297 259.06582355 C-265.81095679 253.74818513 -260.49682046 248.42981105 -255.18281555 243.11130524 C-240.46729325 228.38359722 -225.75084746 213.65681327 -211.03090668 198.93352127 C-210.08023871 197.98263168 -209.12957082 197.031742 -208.17890301 196.08085226 C-207.22599047 195.12771908 -206.27307785 194.17458598 -205.32016516 193.22145295 C-203.40857083 191.30941608 -201.49697878 189.39737691 -199.58538818 187.4853363 C-199.11142888 187.01126761 -198.63746958 186.53719892 -198.14914788 186.04876451 C-182.76744881 170.66343162 -167.39191284 155.27195916 -152.02004565 139.8768034 C-135.75770386 123.58986909 -119.48992881 107.30837769 -103.21588659 91.03313327 C-94.34827311 82.16460253 -85.48309918 73.29366308 -76.62409973 64.41652679 C-69.08510758 56.86215424 -61.5410219 49.3129156 -53.99020064 41.7703658 C-50.13746378 37.92154184 -46.28720785 34.07031835 -42.44343376 30.21254158 C-38.92533214 26.68174073 -35.4003909 23.15792239 -31.8698563 19.63955483 C-30.59343647 18.36509881 -29.31955186 17.08809759 -28.04846674 15.80832091 C-26.3205457 14.06933412 -24.58362335 12.33985535 -22.84416962 10.61241531 C-22.35277345 10.11342395 -21.86137728 9.61443259 -21.35509032 9.10032028 C-15.05746261 2.89622332 -8.81673897 0.07094822 0 0 Z " fill="#000000" transform="translate(648.0204467773438,284.83937072753906)" data-index="1" style="opacity: 1;"></path>
<path d="M0 0 C2.39639446 0.04309071 4.79289001 0.08090189 7.18945312 0.11328125 C35.74163904 0.65724591 35.74163904 0.65724591 45.8359375 9.546875 C50.51271696 14.70273919 52.41239861 19.73474887 52.18359375 26.80078125 C51.36046771 33.73855785 48.07809979 39.21517573 42.9375 43.875 C39.5625 45.8125 39.5625 45.8125 36.9375 46.875 C41.29482883 52.20062413 46.02076398 57.0196153 50.97363281 61.78613281 C52.33122661 63.11293053 53.63898106 64.49033337 54.9375 65.875 C54.9375 66.535 54.9375 67.195 54.9375 67.875 C50.62645621 68.16790044 46.31798713 68.34379375 42 68.5 C40.18145508 68.62568359 40.18145508 68.62568359 38.32617188 68.75390625 C29.39974959 68.99581471 29.39974959 68.99581471 25.29638672 65.85058594 C22.41258672 62.61970154 19.88833319 59.22457455 17.39648438 55.68774414 C14.6480278 52.30188142 12.85824152 51.04381782 8.48876953 50.24267578 C4.32613308 49.88163309 0.17465563 49.90313101 -4 49.9375 C-5.46162024 49.92437604 -6.92321597 49.90812868 -8.38476562 49.88867188 C-11.94609285 49.842211 -15.49880795 49.86008915 -19.0625 49.875 C-19.0625 55.815 -19.0625 61.755 -19.0625 67.875 C-25.6625 67.875 -32.2625 67.875 -39.0625 67.875 C-39.0625 56.325 -39.0625 44.775 -39.0625 32.875 C-34.41671875 32.82601562 -29.7709375 32.77703125 -24.984375 32.7265625 C-22.04034286 32.69117493 -19.09634009 32.65521431 -16.15234375 32.6171875 C-11.48002334 32.55689104 -6.80774401 32.49871206 -2.13525391 32.453125 C1.63202336 32.41623683 5.39907576 32.36986748 9.16616058 32.31693649 C10.60301517 32.29841127 12.03991793 32.28329637 13.47684479 32.27165604 C15.49019323 32.25476235 17.50341701 32.22459317 19.51660156 32.19384766 C20.66243713 32.18052399 21.80827271 32.16720032 22.98883057 32.1534729 C25.84025059 31.88418425 27.52015456 31.35694267 29.9375 29.875 C29.9375 27.235 29.9375 24.595 29.9375 21.875 C25.62877374 19.43558865 22.50502649 18.49303598 17.56494141 18.44262695 C16.32410797 18.42283279 15.08327454 18.40303864 13.80484009 18.38264465 C12.46624911 18.37587653 11.12765647 18.36942947 9.7890625 18.36328125 C8.4075665 18.34641998 7.02608571 18.3282678 5.6446228 18.30888367 C2.0246862 18.26153403 -1.59518872 18.23162801 -5.21533203 18.20544434 C-8.91581396 18.1755624 -12.61608371 18.12905849 -16.31640625 18.08398438 C-23.56499853 17.99812266 -30.81360653 17.93070187 -38.0625 17.875 C-37.59525009 17.11357697 -37.12800018 16.35215393 -36.64659119 15.56765747 C-34.98655 12.86904819 -34.98655 12.86904819 -33.71704102 9.79248047 C-26.56035158 -3.47243371 -13.24881981 -0.51484819 0 0 Z " fill="#030303" transform="translate(514.0625,681.125)" data-index="2"></path>
<path d="M0 0 C6.86793136 2.79052044 10.09170088 8.51189018 14.04296875 14.4921875 C15.25941465 16.26971716 16.48492923 18.04080367 17.71020508 19.81225586 C19.09504641 21.81759946 20.4717312 23.82837348 21.84765625 25.83984375 C25.59369346 31.30551097 29.38142812 36.74203903 33.16796875 42.1796875 C34.19567383 43.65671143 34.19567383 43.65671143 35.24414062 45.16357422 C38.18093044 49.38397057 41.11942071 53.60312214 44.06640625 57.81640625 C44.89194411 58.99998812 45.71746662 60.1835807 46.54296875 61.3671875 C47.23390625 62.35460937 47.92484375 63.34203125 48.63671875 64.359375 C50.04296875 66.4921875 50.04296875 66.4921875 50.04296875 67.4921875 C24.63296875 67.4921875 -0.77703125 67.4921875 -26.95703125 67.4921875 C-25.63703125 65.1821875 -24.31703125 62.8721875 -22.95703125 60.4921875 C-22.49611084 59.55777832 -22.03519043 58.62336914 -21.56030273 57.66064453 C-19.93223832 54.7528067 -18.47675153 52.69165306 -15.95703125 50.4921875 C-10.98471221 49.1408771 -6.12989151 49.22384285 -1.01953125 49.3671875 C0.34570422 49.36913205 1.71095397 49.3665681 3.07617188 49.359375 C6.40127011 49.359375 9.71920164 49.40502967 13.04296875 49.4921875 C12.56351807 48.80592285 12.08406738 48.1196582 11.59008789 47.41259766 C9.81298769 44.86759868 8.03707374 42.32177747 6.26196289 39.77539062 C5.11501187 38.13087061 3.96669123 36.4873061 2.81835938 34.84375 C2.09970703 33.8125 1.38105469 32.78125 0.640625 31.71875 C-0.35698853 30.28909912 -0.35698853 30.28909912 -1.37475586 28.83056641 C-2.95703125 26.4921875 -2.95703125 26.4921875 -3.95703125 24.4921875 C-8.16539066 25.89497397 -9.555862 28.9363283 -11.89453125 32.4921875 C-12.8765875 33.95250713 -13.85969719 35.41211877 -14.84375 36.87109375 C-15.35341309 37.6305127 -15.86307617 38.38993164 -16.38818359 39.17236328 C-18.94803357 42.95756316 -21.57366496 46.69541557 -24.20703125 50.4296875 C-24.6774585 51.10193359 -25.14788574 51.77417969 -25.63256836 52.46679688 C-26.56743774 53.7933513 -27.51676434 55.10983438 -28.48022461 56.41577148 C-30.019139 58.51996048 -30.019139 58.51996048 -31.43579102 60.97680664 C-33.80224195 64.64341822 -35.40941569 67.09982857 -39.76220703 68.20336914 C-43.01916456 68.37798517 -46.14128449 68.2805806 -49.39453125 68.0546875 C-51.06418945 67.9937793 -51.06418945 67.9937793 -52.76757812 67.93164062 C-55.50194255 67.8260214 -58.22718037 67.67855263 -60.95703125 67.4921875 C-57.18514281 61.78612413 -53.34921647 56.13554792 -49.39453125 50.5546875 C-48.62689453 49.46897461 -48.62689453 49.46897461 -47.84375 48.36132812 C-43.54575207 42.29510047 -39.19987251 36.26395379 -34.82739258 30.2512207 C-32.07657606 26.46095935 -29.36390808 22.6512797 -26.71484375 18.7890625 C-26.18826172 18.0259375 -25.66167969 17.2628125 -25.11914062 16.4765625 C-24.13049457 15.03944549 -23.14937114 13.59710872 -22.17773438 12.1484375 C-16.66434413 4.15756091 -10.46280707 -2.71490004 0 0 Z " fill="#020202" transform="translate(632.95703125,681.5078125)" data-index="3"></path>
<path d="M0 0 C6.86793136 2.79052044 10.09170088 8.51189018 14.04296875 14.4921875 C15.25941465 16.26971716 16.48492923 18.04080367 17.71020508 19.81225586 C19.09504641 21.81759946 20.4717312 23.82837348 21.84765625 25.83984375 C25.59369346 31.30551097 29.38142812 36.74203903 33.16796875 42.1796875 C34.19567383 43.65671143 34.19567383 43.65671143 35.24414062 45.16357422 C38.18093044 49.38397057 41.11942071 53.60312214 44.06640625 57.81640625 C44.89194411 58.99998812 45.71746662 60.1835807 46.54296875 61.3671875 C47.23390625 62.35460937 47.92484375 63.34203125 48.63671875 64.359375 C50.04296875 66.4921875 50.04296875 66.4921875 50.04296875 67.4921875 C24.63296875 67.4921875 -0.77703125 67.4921875 -26.95703125 67.4921875 C-25.63703125 65.1821875 -24.31703125 62.8721875 -22.95703125 60.4921875 C-22.49611084 59.55777832 -22.03519043 58.62336914 -21.56030273 57.66064453 C-19.93223832 54.7528067 -18.47675153 52.69165306 -15.95703125 50.4921875 C-10.98471221 49.1408771 -6.12989151 49.22384285 -1.01953125 49.3671875 C0.34570422 49.36913205 1.71095397 49.3665681 3.07617188 49.359375 C6.40127011 49.359375 9.71920164 49.40502967 13.04296875 49.4921875 C12.56351807 48.80592285 12.08406738 48.1196582 11.59008789 47.41259766 C9.81298769 44.86759868 8.03707374 42.32177747 6.26196289 39.77539062 C5.11501187 38.13087061 3.96669123 36.4873061 2.81835938 34.84375 C2.09970703 33.8125 1.38105469 32.78125 0.640625 31.71875 C-0.35698853 30.28909912 -0.35698853 30.28909912 -1.37475586 28.83056641 C-2.95703125 26.4921875 -2.95703125 26.4921875 -3.95703125 24.4921875 C-8.16539066 25.89497397 -9.555862 28.9363283 -11.89453125 32.4921875 C-12.8765875 33.95250713 -13.85969719 35.41211877 -14.84375 36.87109375 C-15.35341309 37.6305127 -15.86307617 38.38993164 -16.38818359 39.17236328 C-18.94803357 42.95756316 -21.57366496 46.69541557 -24.20703125 50.4296875 C-24.6774585 51.10193359 -25.14788574 51.77417969 -25.63256836 52.46679688 C-26.56743774 53.7933513 -27.51676434 55.10983438 -28.48022461 56.41577148 C-30.019139 58.51996048 -30.019139 58.51996048 -31.43579102 60.97680664 C-33.80224195 64.64341822 -35.40941569 67.09982857 -39.76220703 68.20336914 C-43.01916456 68.37798517 -46.14128449 68.2805806 -49.39453125 68.0546875 C-51.06418945 67.9937793 -51.06418945 67.9937793 -52.76757812 67.93164062 C-55.50194255 67.8260214 -58.22718037 67.67855263 -60.95703125 67.4921875 C-57.18514281 61.78612413 -53.34921647 56.13554792 -49.39453125 50.5546875 C-48.62689453 49.46897461 -48.62689453 49.46897461 -47.84375 48.36132812 C-43.54575207 42.29510047 -39.19987251 36.26395379 -34.82739258 30.2512207 C-32.07657606 26.46095935 -29.36390808 22.6512797 -26.71484375 18.7890625 C-26.18826172 18.0259375 -25.66167969 17.2628125 -25.11914062 16.4765625 C-24.13049457 15.03944549 -23.14937114 13.59710872 -22.17773438 12.1484375 C-16.66434413 4.15756091 -10.46280707 -2.71490004 0 0 Z " fill="#020202" transform="translate(365.95703125,681.5078125)" data-index="4"></path>
<path d="M0 0 C6.93 0 13.86 0 21 0 C21.33 8.58 21.66 17.16 22 26 C24.578125 23.875625 27.15625 21.75125 29.8125 19.5625 C32.87443285 17.04097719 35.93706763 14.52030856 39 12 C39.60070312 11.50564453 40.20140625 11.01128906 40.8203125 10.50195312 C42.31685696 9.27109953 43.81462516 8.04173425 45.3125 6.8125 C46.13363281 6.13832031 46.95476563 5.46414063 47.80078125 4.76953125 C48.52652344 4.18558594 49.25226562 3.60164062 50 3 C50.57097412 2.4745459 51.14194824 1.9490918 51.73022461 1.40771484 C54.78599591 -0.48747471 56.93763159 -0.34175957 60.515625 -0.29296875 C61.76601563 -0.28330078 63.01640625 -0.27363281 64.3046875 -0.26367188 C66.25761719 -0.2259668 66.25761719 -0.2259668 68.25 -0.1875 C69.56742188 -0.17396484 70.88484375 -0.16042969 72.2421875 -0.14648438 C75.49520321 -0.11112551 78.747396 -0.06177033 82 0 C78.7442726 3.31747849 75.29758637 6.22227122 71.625 9.0625 C70.37756968 10.03511203 69.13017491 11.00776964 67.8828125 11.98046875 C67.24375977 12.47724121 66.60470703 12.97401367 65.94628906 13.48583984 C62.79099423 15.94057373 59.64516702 18.40731231 56.5 20.875 C55.65622803 21.53447632 55.65622803 21.53447632 54.79541016 22.20727539 C51.13971669 25.07291655 47.55611864 28.011575 44 31 C45.23854511 34.71563534 46.69017178 35.59458591 49.75 38 C50.74902344 38.79664063 51.74804688 39.59328125 52.77734375 40.4140625 C53.3069873 40.8359082 53.83663086 41.25775391 54.38232422 41.69238281 C57.0715025 43.86612849 59.68708885 46.12504829 62.3125 48.375 C67.61506729 52.90548135 73.05311736 57.23786055 78.5949707 61.47216797 C82.89464391 64.78928783 82.89464391 64.78928783 84 67 C54.54125579 69.0060002 54.54125579 69.0060002 48.15649414 63.52197266 C45.95295941 61.12910605 43.97837084 58.57990251 42 56 C40.14856546 54.38513765 38.25230373 52.82006485 36.3125 51.3125 C31.35545069 47.3674161 26.76797506 43.23820005 22 39 C21.67 48.24 21.34 57.48 21 67 C14.07 67 7.14 67 0 67 C0 44.89 0 22.78 0 0 Z " fill="#030303" transform="translate(691,682)" data-index="5"></path>
<path d="M0 0 C1.64906562 0.0149366 3.29816695 0.02631693 4.94728088 0.03430176 C9.27024806 0.06472583 13.59103598 0.14319907 17.91314697 0.23193359 C22.33046999 0.31403884 26.74814813 0.3503655 31.16601562 0.390625 C39.8213083 0.47620792 48.47483557 0.61259064 57.12890625 0.78125 C55.63316345 3.37543488 55.63316345 3.37543488 54.13742065 5.96961975 C53.28607708 7.49891845 52.51423031 9.07206948 51.76171875 10.65234375 C50.25390625 13.21875 50.25390625 13.21875 45.12890625 17.78125 C37.86890625 17.78125 30.60890625 17.78125 23.12890625 17.78125 C23.12890625 34.28125 23.12890625 50.78125 23.12890625 67.78125 C16.52890625 67.78125 9.92890625 67.78125 3.12890625 67.78125 C3.12890625 51.28125 3.12890625 34.78125 3.12890625 17.78125 C-7.76109375 17.78125 -18.65109375 17.78125 -29.87109375 17.78125 C-27.89109375 14.81125 -25.91109375 11.84125 -23.87109375 8.78125 C-22.94031006 7.29173828 -22.00952637 5.80222656 -21.05053711 4.26757812 C-15.70718623 -1.6027999 -7.29691038 -0.194236 0 0 Z " fill="#000000" transform="translate(420.87109375,681.21875)" data-index="6"></path>
</svg>