<svg version="1.1" xmlns="http://www.w3.org/2000/svg" width="1080" height="1080">
<path d="M0 0 C356.4 0 712.8 0 1080 0 C1080 356.4 1080 712.8 1080 1080 C723.6 1080 367.2 1080 0 1080 C0 723.6 0 367.2 0 0 Z " fill="#000000" transform="translate(0,0)" data-index="0"></path>
<path d="M0 0 C1.01043869 -0.01554428 2.02087738 -0.03108856 3.06193542 -0.04710388 C4.66993011 -0.03427872 4.66993011 -0.03427872 6.31040955 -0.02119446 C7.46784164 -0.03156235 8.62527374 -0.04193024 9.81777954 -0.0526123 C13.61639082 -0.07955839 17.41383771 -0.07004717 21.21250916 -0.05757141 C23.19539418 -0.06198826 25.17827983 -0.06642085 27.16115946 -0.07281715 C33.38487169 -0.09269828 39.60819913 -0.08727957 45.83189392 -0.06513977 C52.23066267 -0.04276257 58.62842316 -0.06040561 65.02709681 -0.09818906 C70.5442439 -0.12951019 76.06108032 -0.13731353 81.57830518 -0.12623531 C84.8634283 -0.11977823 88.14784571 -0.12413363 91.43292427 -0.14555931 C95.09724541 -0.16558377 98.75946553 -0.14709343 102.4236908 -0.11885071 C104.03472183 -0.13942535 104.03472183 -0.13942535 105.67829895 -0.16041565 C112.83754309 -0.05047268 118.16739247 1.4337212 123.30235291 6.64164734 C128.1308754 12.96310958 127.86950366 18.80758106 127.8170166 26.5645752 C127.82396213 27.87023727 127.83090766 29.17589934 127.83806366 30.52112693 C127.85666796 34.13464012 127.85039384 37.74774286 127.83991063 41.36127293 C127.83291211 45.26257261 127.84892163 49.16378852 127.86190796 53.06506348 C127.88354361 60.70431144 127.88342198 68.3434104 127.87528241 75.98267893 C127.86898009 82.19334891 127.87012159 88.40397548 127.87655449 94.614645 C127.87745614 95.49892494 127.8783578 96.38320488 127.87928678 97.29428118 C127.88113801 99.09077314 127.88300057 100.88726509 127.88487434 102.68375703 C127.90145183 119.52893525 127.89273462 136.37402971 127.87588876 153.2192029 C127.86119764 168.6218082 127.87581199 184.02421833 127.90465892 199.4267985 C127.93407153 215.24952332 127.9450194 231.07215813 127.93547672 246.89490908 C127.93445419 248.6856735 127.93345958 250.47643793 127.93249321 252.26720238 C127.93201682 253.14824563 127.93154043 254.02928888 127.9310496 254.93703041 C127.92888762 261.13659116 127.93867827 267.33606648 127.95326424 273.53560829 C127.97080476 281.09634468 127.97064589 288.65683244 127.94791258 296.21755914 C127.93678487 300.07308123 127.93357388 303.92816556 127.95221329 307.78366852 C127.97218499 311.96872727 127.95320045 316.15272361 127.93054199 320.33776855 C127.94237772 321.54896876 127.95421345 322.76016896 127.96640784 324.0080722 C127.88296538 331.60049425 126.57084823 337.27850058 122.30235291 343.64164734 C119.95079041 345.89555359 119.95079041 345.89555359 117.67735291 347.20414734 C116.92196228 347.6591864 116.16657166 348.11422546 115.38829041 348.58305359 C112.24040641 350.18057524 109.70498001 350.76769579 106.22354126 350.78208923 C105.39508698 350.78779938 104.56663269 350.79350952 103.71307373 350.7993927 C102.80756271 350.80051056 101.9020517 350.80162842 100.96910095 350.80278015 C100.01269714 350.80774506 99.05629333 350.81270996 98.07090759 350.81782532 C94.901955 350.83244903 91.73305247 350.83924939 88.56407166 350.84477234 C86.36312865 350.85052372 84.16218565 350.85628145 81.96124268 350.86204529 C77.34357978 350.87255594 72.72593429 350.87839816 68.10826111 350.88188171 C62.19330528 350.88736586 56.27857972 350.91139208 50.3636961 350.93985367 C45.81606373 350.95848391 41.26848678 350.96368587 36.72081947 350.96521759 C34.54034479 350.96824388 32.35987107 350.97627158 30.17943382 350.98940277 C27.12737422 351.00647066 24.07587651 351.00458102 21.02378845 350.99809265 C20.12435013 351.00730743 19.2249118 351.01652222 18.29821777 351.02601624 C12.38639454 350.98667664 8.08208082 350.09134819 3.49278259 346.04692078 C-1.63223226 339.98589035 -6.04650601 333.48837774 -10.44764709 326.89164734 C-11.27225234 325.66485077 -12.09745957 324.43845865 -12.92323303 323.21244812 C-14.64336369 320.65754452 -16.36088897 318.10091926 -18.07655334 315.54301453 C-21.93879938 309.7889018 -25.83069083 304.05490424 -29.72315979 298.32121277 C-30.91338573 296.56713939 -32.10208041 294.81203775 -33.29042053 293.0566864 C-37.25266698 287.21111791 -41.25191348 281.40210072 -45.37635803 275.66947937 C-48.23172749 271.28723645 -48.31291035 266.70240429 -47.69764709 261.64164734 C-45.44625908 257.05227946 -42.50648949 253.54181055 -37.69764709 251.64164734 C-33.09198554 251.04537145 -28.5122723 251.0844963 -23.87342834 251.10258484 C-22.52153946 251.09266986 -21.16966408 251.08072557 -19.81781006 251.06684875 C-16.27289545 251.03458654 -12.72828976 251.02410271 -9.1832428 251.02000427 C-3.49925808 251.01122382 2.18447449 250.97576474 7.86824989 250.92782974 C9.85077882 250.91524852 11.83338022 250.91658558 13.81594849 250.91810608 C15.01762161 250.91114716 16.21929474 250.90418823 17.4573822 250.89701843 C19.04573128 250.89513016 19.04573128 250.89513016 20.66616821 250.89320374 C23.53332701 250.82938617 23.53332701 250.82938617 26.30235291 248.64164734 C26.75132286 245.93661187 26.75132286 245.93661187 26.66311646 242.70655823 C26.66724045 241.44168579 26.67136444 240.17681335 26.6756134 238.87361145 C26.66499524 237.46409396 26.6540908 236.0545786 26.64292908 234.64506531 C26.64208324 233.16695676 26.6425571 231.68884695 26.64425659 230.21073914 C26.64511967 226.19021495 26.62744366 222.1699576 26.60653472 218.1494956 C26.58781976 213.95077703 26.58602158 209.75205279 26.5824585 205.55329895 C26.57312275 197.5988801 26.54848837 189.6445845 26.51841003 181.69022 C26.4849135 172.63594972 26.46839198 163.58167365 26.45332372 154.52735686 C26.42194008 135.89871707 26.36914997 117.2701921 26.30235291 98.64164734 C25.51860291 99.46664734 24.73485291 100.29164734 23.92735291 101.14164734 C21.30235291 103.64164734 21.30235291 103.64164734 19.30235291 103.64164734 C19.07056335 104.20013367 18.8387738 104.75862 18.59996033 105.33403015 C16.9621562 108.24664062 14.92696575 110.22355528 12.54063416 112.56352234 C11.83731209 113.25904205 11.83731209 113.25904205 11.11978149 113.96861267 C9.62283692 115.44781758 8.11939542 116.92017435 6.61485291 118.39164734 C4.64914053 120.32044041 2.68672798 122.25250085 0.72813416 124.18852234 C0.25038544 124.66068176 -0.22736328 125.13284119 -0.71958923 125.61930847 C-3.96712929 128.85295538 -6.99996803 132.21057116 -9.97425842 135.69340515 C-14.07959201 140.33436875 -18.60969159 144.58872465 -23.02577209 148.93070984 C-26.5078044 152.3772112 -29.91611585 155.82568287 -33.10389709 159.54789734 C-38.36044626 165.66438888 -44.22036475 171.20647648 -49.95936584 176.86430359 C-54.45871326 181.32469562 -58.79410156 185.82466796 -62.91444397 190.63578796 C-67.25107528 195.51390445 -72.0204922 199.99888667 -76.67030334 204.57524109 C-80.28023385 208.15040501 -83.82923715 211.71899984 -87.13514709 215.57914734 C-92.37849399 221.68725063 -98.23107744 227.21703765 -103.95936584 232.86430359 C-108.46887619 237.33477056 -112.81593039 241.84491733 -116.94569397 246.66703796 C-121.06687469 251.31198078 -125.59999366 255.57918943 -130.02577209 259.93070984 C-133.5078044 263.3772112 -136.91611585 266.82568287 -140.10389709 270.54789734 C-145.36044626 276.66438888 -151.22036475 282.20647648 -156.95936584 287.86430359 C-161.46887619 292.33477056 -165.81593039 296.84491733 -169.94569397 301.66703796 C-174.06687469 306.31198078 -178.59999366 310.57918943 -183.02577209 314.93070984 C-187.14852398 319.01139282 -191.07894675 323.16492653 -194.86170959 327.56108093 C-198.48862727 331.67126609 -202.34552459 335.55638357 -206.19764709 339.45414734 C-207.01362366 340.29912781 -207.82960022 341.14410828 -208.67030334 342.01469421 C-209.47338928 342.82615906 -210.27647522 343.6376239 -211.10389709 344.47367859 C-212.17607483 345.5677301 -212.17607483 345.5677301 -213.26991272 346.68388367 C-219.64220975 351.8226055 -225.60218474 352.08144459 -233.49476624 352.04570007 C-234.55904343 352.05256332 -235.62332062 352.05942657 -236.71984863 352.0664978 C-240.22430402 352.08474212 -243.72831084 352.08093227 -247.23280334 352.07524109 C-249.67465358 352.07980326 -252.11650253 352.08510894 -254.55834961 352.09112549 C-259.6700208 352.1000514 -264.78153571 352.09763836 -269.89320374 352.08769226 C-276.44263439 352.07619007 -282.99152691 352.09643654 -289.54088688 352.1256094 C-294.58093692 352.14395425 -299.6208575 352.14368253 -304.66093254 352.13797188 C-307.07585341 352.13781853 -309.49078298 352.14387425 -311.90567207 352.15626335 C-315.28076629 352.1711424 -318.65485958 352.16051866 -322.02992249 352.14335632 C-323.02593475 352.15302429 -324.02194702 352.16269226 -325.04814148 352.1726532 C-330.92306692 352.11010527 -334.1956888 351.50242706 -338.69764709 347.64164734 C-341.96469248 343.9389959 -342.43814099 340.09866567 -342.19370192 335.29530412 C-341.64105307 332.33889629 -340.98839925 331.30496349 -338.96389484 329.1323576 C-338.32352177 328.44177867 -337.6831487 327.75119975 -337.02337039 327.03969419 C-331.99299147 321.85288441 -326.92094408 316.71274258 -321.81268311 311.6027832 C-320.49775404 310.28383355 -319.18303458 308.96467489 -317.86850578 307.64532632 C-314.26878034 304.03369759 -310.66595458 300.42517584 -307.06256449 296.81720388 C-303.17184339 292.92050348 -299.28393824 289.02099501 -295.39558411 285.12193298 C-286.01520268 275.71709021 -276.62992712 266.31713899 -267.24377105 256.91805986 C-264.59230875 254.26288262 -261.94097558 251.60757652 -259.28968835 248.95222449 C-242.81696698 232.45427595 -226.34266338 215.95790906 -209.86354351 199.46635151 C-206.05146641 195.65135339 -202.23941262 191.83633199 -198.42738342 188.02128601 C-197.9538164 187.54734808 -197.48024937 187.07341014 -196.99233183 186.58511045 C-181.62886828 171.20948401 -166.27483341 155.82448605 -150.92613763 140.43411869 C-134.6853682 124.14933641 -118.43545177 107.87372479 -102.17535239 91.60823983 C-93.31673521 82.74620851 -84.46233464 73.88005095 -75.61849022 65.00327492 C-68.09097276 57.44777245 -60.55502785 49.90080636 -53.00790509 42.36488525 C-49.15830442 38.52047391 -45.31286687 34.67212766 -41.4782505 30.81276512 C-37.96612557 27.27816469 -34.44260379 23.75535347 -30.9097533 20.24147179 C-29.63556847 18.97008913 -28.36557775 17.69448583 -27.10031661 16.41422216 C-10.90645654 0.04019099 -10.90645654 0.04019099 0 0 Z " fill="#FEFEFE" transform="translate(646.6976470947266,284.3583526611328)" data-index="1"></path>
<path d="M0 0 C2.28310859 0.04309892 4.56632351 0.08090813 6.84960938 0.11328125 C36.96294106 0.71258011 36.96294106 0.71258011 46.953125 9.546875 C51.6429342 14.69200548 53.53730901 19.73751572 53.30859375 26.80078125 C52.48546771 33.73855785 49.20309979 39.21517573 44.0625 43.875 C40.6875 45.8125 40.6875 45.8125 38.0625 46.875 C42.60686674 52.45807914 47.60581884 57.48679965 52.74291992 62.51831055 C54.19990235 63.95336126 55.63350272 65.41207994 57.0625 66.875 C57.0625 67.205 57.0625 67.535 57.0625 67.875 C52.58473243 68.16772342 48.10944023 68.34374773 43.625 68.5 C42.36494141 68.58378906 41.10488281 68.66757812 39.80664062 68.75390625 C30.5420343 68.99580198 30.5420343 68.99580198 26.39013672 65.85058594 C23.50929082 62.62301119 21.01018787 59.2218172 18.5234375 55.68774414 C15.77261852 52.30330462 13.98401073 51.04395885 9.61376953 50.24267578 C5.45113308 49.88163309 1.29965563 49.90313101 -2.875 49.9375 C-4.33662024 49.92437604 -5.79821597 49.90812868 -7.25976562 49.88867188 C-10.82109285 49.842211 -14.37380795 49.86008915 -17.9375 49.875 C-17.9375 55.815 -17.9375 61.755 -17.9375 67.875 C-24.5375 67.875 -31.1375 67.875 -37.9375 67.875 C-37.9375 56.325 -37.9375 44.775 -37.9375 32.875 C-33.29171875 32.82601562 -28.6459375 32.77703125 -23.859375 32.7265625 C-20.91534286 32.69117493 -17.97134009 32.65521431 -15.02734375 32.6171875 C-10.35502334 32.55689104 -5.68274401 32.49871206 -1.01025391 32.453125 C2.75702336 32.41623683 6.52407576 32.36986748 10.29116058 32.31693649 C11.72801517 32.29841127 13.16491793 32.28329637 14.60184479 32.27165604 C16.61519323 32.25476235 18.62841701 32.22459317 20.64160156 32.19384766 C21.78743713 32.18052399 22.93327271 32.16720032 24.11383057 32.1534729 C26.96525059 31.88418425 28.64515456 31.35694267 31.0625 29.875 C31.0625 27.235 31.0625 24.595 31.0625 21.875 C26.75377374 19.43558865 23.63002649 18.49303598 18.68994141 18.44262695 C17.44910797 18.42283279 16.20827454 18.40303864 14.92984009 18.38264465 C13.59124911 18.37587653 12.25265647 18.36942947 10.9140625 18.36328125 C9.5325665 18.34641998 8.15108571 18.3282678 6.7696228 18.30888367 C3.1496862 18.26153403 -0.47018872 18.23162801 -4.09033203 18.20544434 C-7.79081396 18.1755624 -11.49108371 18.12905849 -15.19140625 18.08398438 C-22.43999853 17.99812266 -29.68860653 17.93070187 -36.9375 17.875 C-36.47106583 17.11357697 -36.00463165 16.35215393 -35.52406311 15.56765747 C-33.86505789 12.86487129 -33.86505789 12.86487129 -32.55249023 9.79248047 C-25.42450481 -3.18618094 -13.11603975 -0.53345191 0 0 Z " fill="#FBFBFB" transform="translate(512.9375,681.125)" data-index="2"></path>
<path d="M0 0 C6.86793136 2.79052044 10.09170088 8.51189018 14.04296875 14.4921875 C15.25941465 16.26971716 16.48492923 18.04080367 17.71020508 19.81225586 C19.09504641 21.81759946 20.4717312 23.82837348 21.84765625 25.83984375 C25.59369346 31.30551097 29.38142812 36.74203903 33.16796875 42.1796875 C34.19567383 43.65671143 34.19567383 43.65671143 35.24414062 45.16357422 C38.18093044 49.38397057 41.11942071 53.60312214 44.06640625 57.81640625 C44.89194411 58.99998812 45.71746662 60.1835807 46.54296875 61.3671875 C47.23390625 62.35460937 47.92484375 63.34203125 48.63671875 64.359375 C50.04296875 66.4921875 50.04296875 66.4921875 50.04296875 67.4921875 C24.63296875 67.4921875 -0.77703125 67.4921875 -26.95703125 67.4921875 C-25.63703125 65.1821875 -24.31703125 62.8721875 -22.95703125 60.4921875 C-22.49611084 59.55777832 -22.03519043 58.62336914 -21.56030273 57.66064453 C-19.93223832 54.7528067 -18.47675153 52.69165306 -15.95703125 50.4921875 C-10.98471221 49.1408771 -6.12989151 49.22384285 -1.01953125 49.3671875 C0.34570422 49.36913205 1.71095397 49.3665681 3.07617188 49.359375 C6.40127011 49.359375 9.71920164 49.40502967 13.04296875 49.4921875 C10.77324591 46.24141066 8.50199663 42.99170324 6.23046875 39.7421875 C5.58787109 38.82179688 4.94527344 37.90140625 4.28320312 36.953125 C3.66123047 36.06367187 3.03925781 35.17421875 2.3984375 34.2578125 C1.82762451 33.44086914 1.25681152 32.62392578 0.66870117 31.78222656 C-0.4063848 30.26783906 -1.51830377 28.77887528 -2.66674805 27.31933594 C-3.95703125 25.4921875 -3.95703125 25.4921875 -3.95703125 23.4921875 C-8.41024684 27.59340259 -11.61633096 32.15050607 -14.95703125 37.1796875 C-19.58541085 44.04680512 -24.29378354 50.84252689 -29.14453125 57.5546875 C-29.69689453 58.32192139 -30.24925781 59.08915527 -30.81835938 59.87963867 C-34.69999484 65.23515109 -34.69999484 65.23515109 -36.95703125 67.4921875 C-39.38720703 67.71923828 -39.38720703 67.71923828 -42.40234375 67.6875 C-43.47871094 67.68105469 -44.55507813 67.67460938 -45.6640625 67.66796875 C-46.79199219 67.65121094 -47.91992188 67.63445312 -49.08203125 67.6171875 C-50.78552734 67.60365234 -50.78552734 67.60365234 -52.5234375 67.58984375 C-55.33484424 67.56621848 -58.14583423 67.53327763 -60.95703125 67.4921875 C-57.18514281 61.78612413 -53.34921647 56.13554792 -49.39453125 50.5546875 C-48.62689453 49.46897461 -48.62689453 49.46897461 -47.84375 48.36132812 C-43.54575207 42.29510047 -39.19987251 36.26395379 -34.82739258 30.2512207 C-32.07657606 26.46095935 -29.36390808 22.6512797 -26.71484375 18.7890625 C-26.18826172 18.0259375 -25.66167969 17.2628125 -25.11914062 16.4765625 C-24.13049457 15.03944549 -23.14937114 13.59710872 -22.17773438 12.1484375 C-16.66434413 4.15756091 -10.46280707 -2.71490004 0 0 Z " fill="#FCFCFC" transform="translate(632.95703125,681.5078125)" data-index="3"></path>
<path d="M0 0 C6.86793136 2.79052044 10.09170088 8.51189018 14.04296875 14.4921875 C15.25941465 16.26971716 16.48492923 18.04080367 17.71020508 19.81225586 C19.09504641 21.81759946 20.4717312 23.82837348 21.84765625 25.83984375 C25.59369346 31.30551097 29.38142812 36.74203903 33.16796875 42.1796875 C34.19567383 43.65671143 34.19567383 43.65671143 35.24414062 45.16357422 C38.18093044 49.38397057 41.11942071 53.60312214 44.06640625 57.81640625 C44.89194411 58.99998812 45.71746662 60.1835807 46.54296875 61.3671875 C47.23390625 62.35460937 47.92484375 63.34203125 48.63671875 64.359375 C50.04296875 66.4921875 50.04296875 66.4921875 50.04296875 67.4921875 C24.63296875 67.4921875 -0.77703125 67.4921875 -26.95703125 67.4921875 C-25.63703125 65.1821875 -24.31703125 62.8721875 -22.95703125 60.4921875 C-22.49611084 59.55777832 -22.03519043 58.62336914 -21.56030273 57.66064453 C-19.93223832 54.7528067 -18.47675153 52.69165306 -15.95703125 50.4921875 C-10.98471221 49.1408771 -6.12989151 49.22384285 -1.01953125 49.3671875 C0.34570422 49.36913205 1.71095397 49.3665681 3.07617188 49.359375 C6.40127011 49.359375 9.71920164 49.40502967 13.04296875 49.4921875 C10.77324591 46.24141066 8.50199663 42.99170324 6.23046875 39.7421875 C5.58787109 38.82179688 4.94527344 37.90140625 4.28320312 36.953125 C3.66123047 36.06367187 3.03925781 35.17421875 2.3984375 34.2578125 C1.82762451 33.44086914 1.25681152 32.62392578 0.66870117 31.78222656 C-0.4063848 30.26783906 -1.51830377 28.77887528 -2.66674805 27.31933594 C-3.95703125 25.4921875 -3.95703125 25.4921875 -3.95703125 23.4921875 C-8.41024684 27.59340259 -11.61633096 32.15050607 -14.95703125 37.1796875 C-19.58541085 44.04680512 -24.29378354 50.84252689 -29.14453125 57.5546875 C-29.69689453 58.32192139 -30.24925781 59.08915527 -30.81835938 59.87963867 C-34.69999484 65.23515109 -34.69999484 65.23515109 -36.95703125 67.4921875 C-39.38720703 67.71923828 -39.38720703 67.71923828 -42.40234375 67.6875 C-43.47871094 67.68105469 -44.55507813 67.67460938 -45.6640625 67.66796875 C-46.79199219 67.65121094 -47.91992188 67.63445312 -49.08203125 67.6171875 C-50.78552734 67.60365234 -50.78552734 67.60365234 -52.5234375 67.58984375 C-55.33484424 67.56621848 -58.14583423 67.53327763 -60.95703125 67.4921875 C-57.18514281 61.78612413 -53.34921647 56.13554792 -49.39453125 50.5546875 C-48.62689453 49.46897461 -48.62689453 49.46897461 -47.84375 48.36132812 C-43.54575207 42.29510047 -39.19987251 36.26395379 -34.82739258 30.2512207 C-32.07657606 26.46095935 -29.36390808 22.6512797 -26.71484375 18.7890625 C-26.18826172 18.0259375 -25.66167969 17.2628125 -25.11914062 16.4765625 C-24.13049457 15.03944549 -23.14937114 13.59710872 -22.17773438 12.1484375 C-16.66434413 4.15756091 -10.46280707 -2.71490004 0 0 Z " fill="#FCFCFC" transform="translate(365.95703125,681.5078125)" data-index="4"></path>
<path d="M0 0 C6.93 0 13.86 0 21 0 C21.33 8.58 21.66 17.16 22 26 C24.495625 23.9375 26.99125 21.875 29.5625 19.75 C31.15086722 18.47113748 32.73938026 17.192456 34.328125 15.9140625 C37.23379996 13.54277804 39.91403162 11.12772438 42.484375 8.3984375 C49.53436951 1.26330314 54.87528963 -0.62707394 65.03198242 -0.81298828 C70.70401717 -0.72150957 76.34614845 -0.46163553 82 0 C78.58429246 3.54708091 75.05889483 6.60457145 71.125 9.5625 C66.02412228 13.42828757 60.99122599 17.36857607 56 21.375 C55.37754395 21.87459229 54.75508789 22.37418457 54.11376953 22.88891602 C52.94532246 23.82756956 51.7771728 24.7665935 50.609375 25.70605469 C48.40949783 27.47476661 46.20499478 29.23767463 44 31 C45.23854511 34.71563534 46.69017178 35.59458591 49.75 38 C50.74386719 38.79277344 51.73773437 39.58554687 52.76171875 40.40234375 C53.29071777 40.82370605 53.8197168 41.24506836 54.36474609 41.67919922 C57.14123721 43.92178162 59.84848555 46.2450502 62.5625 48.5625 C67.22164462 52.531452 71.94820248 56.3912396 76.78125 60.1484375 C79.34618185 62.28889119 81.65021751 64.6273805 84 67 C54.54125579 69.0060002 54.54125579 69.0060002 48.15649414 63.52197266 C45.95295941 61.12910605 43.97837084 58.57990251 42 56 C40.14856546 54.38513765 38.25230373 52.82006485 36.3125 51.3125 C31.35545069 47.3674161 26.76797506 43.23820005 22 39 C21.67 48.24 21.34 57.48 21 67 C14.07 67 7.14 67 0 67 C0 44.89 0 22.78 0 0 Z " fill="#FAFAFA" transform="translate(691,682)" data-index="5"></path>
<path d="M0 0 C1.64906562 0.0149366 3.29816695 0.02631693 4.94728088 0.03430176 C9.27024806 0.06472583 13.59103598 0.14319907 17.91314697 0.23193359 C22.33046999 0.31403884 26.74814813 0.3503655 31.16601562 0.390625 C39.8213083 0.47620792 48.47483557 0.61259064 57.12890625 0.78125 C55.63316345 3.37543488 55.63316345 3.37543488 54.13742065 5.96961975 C53.28607708 7.49891845 52.51423031 9.07206948 51.76171875 10.65234375 C50.25390625 13.21875 50.25390625 13.21875 45.12890625 17.78125 C37.86890625 17.78125 30.60890625 17.78125 23.12890625 17.78125 C23.12890625 34.28125 23.12890625 50.78125 23.12890625 67.78125 C16.52890625 67.78125 9.92890625 67.78125 3.12890625 67.78125 C3.12890625 51.28125 3.12890625 34.78125 3.12890625 17.78125 C-7.76109375 17.78125 -18.65109375 17.78125 -29.87109375 17.78125 C-27.89109375 14.81125 -25.91109375 11.84125 -23.87109375 8.78125 C-22.94031006 7.29173828 -22.00952637 5.80222656 -21.05053711 4.26757812 C-15.70718623 -1.6027999 -7.29691038 -0.194236 0 0 Z " fill="#FEFEFE" transform="translate(420.87109375,681.21875)" data-index="6"></path>
</svg>